<?xml version="1.0" encoding="UTF-8" standalone="no"?>
<svg
   xmlns:dc="http://purl.org/dc/elements/1.1/"
   xmlns:cc="http://creativecommons.org/ns#"
   xmlns:rdf="http://www.w3.org/1999/02/22-rdf-syntax-ns#"
   xmlns:svg="http://www.w3.org/2000/svg"
   xmlns="http://www.w3.org/2000/svg"
   xmlns:sodipodi="http://sodipodi.sourceforge.net/DTD/sodipodi-0.dtd"
   xmlns:inkscape="http://www.inkscape.org/namespaces/inkscape"
   width="100"
   height="100"
   viewBox="0 0 100 100"
   version="1.1"
   id="main-svg"
   inkscape:export-filename="D:\c\KTANE\Tents\Assets\Materials\tent.png"
   inkscape:version="1.0.2-2 (e86c870879, 2021-01-15)"
   sodipodi:docname="Tent.svg"
   inkscape:export-xdpi="491.51999"
   inkscape:export-ydpi="491.51999">
  <metadata
     id="metadata7">
    <rdf:RDF>
      <cc:Work
         rdf:about="">
        <dc:format>image/svg+xml</dc:format>
        <dc:type
           rdf:resource="http://purl.org/dc/dcmitype/StillImage" />
        <dc:title></dc:title>
      </cc:Work>
    </rdf:RDF>
  </metadata>
  <defs
     id="defs5">
    <inkscape:path-effect
       effect="spiro"
       id="path-effect850"
       is_visible="true"
       lpeversion="1" />
  </defs>
  <sodipodi:namedview
     id="base"
     pagecolor="#99ff99"
     bordercolor="#666666"
     borderopacity="1.0"
     inkscape:pageopacity="1"
     inkscape:pageshadow="2"
     inkscape:zoom="7"
     inkscape:cx="35.055787"
     inkscape:cy="54.906739"
     inkscape:document-units="px"
     showgrid="true"
     units="px"
     inkscape:current-layer="main-svg"
     inkscape:document-rotation="0">
    <inkscape:grid
       type="xygrid"
       id="main-grid"
       spacingx="2"
       spacingy="0" />
  </sodipodi:namedview>
  <path
     id="path913"
     style="font-variation-settings:normal;opacity:1;vector-effect:none;fill:#000000;fill-opacity:1;fill-rule:evenodd;stroke:none;stroke-width:1;stroke-linecap:butt;stroke-linejoin:miter;stroke-miterlimit:4;stroke-dasharray:none;stroke-dashoffset:0;stroke-opacity:1;stop-color:#000000;stop-opacity:1"
     d="M 44.001953 22 A 2 2 0 0 0 42.939453 22.304688 A 2 2 0 0 0 42.304688 25.060547 L 48.394531 34.802734 L 24.929688 70 L 24 70 C 22 70 22 75 22 75 L 78 75 C 78 75 78 70 76 70 L 75.107422 70 L 53.154297 34.873047 L 59.664062 25.109375 A 2 2 0 0 0 59.109375 22.335938 A 2 2 0 0 0 57.986328 22 A 2 2 0 0 0 56.335938 22.890625 L 50.828125 31.152344 L 45.695312 22.939453 A 2 2 0 0 0 44.001953 22 z M 50.390625 39.017578 L 60 64 L 70.332031 69.904297 L 70.392578 70 L 50 70 L 50 39.605469 L 50.390625 39.017578 z " />
</svg>
